<svg width="48" height="48" viewBox="0 0 48 48" fill="none" xmlns="http://www.w3.org/2000/svg">
<g filter="url(#filter0_d_3708_1317)">
<rect x="4" width="40" height="40" rx="20" fill="url(#paint0_radial_3708_1317)"/>
<path d="M24 11.8072C26.6506 11.8072 27.0121 11.8072 28.0964 11.8072C29.0602 11.8072 29.5422 12.0482 29.9036 12.1687C30.3855 12.4096 30.747 12.5301 31.1084 12.8916C31.4699 13.253 31.7108 13.6145 31.8313 14.0964C31.9518 14.4578 32.0723 14.9398 32.1928 15.9036C32.1928 16.988 32.1928 17.2289 32.1928 20C32.1928 22.7711 32.1928 23.0121 32.1928 24.0964C32.1928 25.0602 31.9518 25.5422 31.8313 25.9036C31.5904 26.3855 31.4699 26.747 31.1084 27.1084C30.747 27.4699 30.3855 27.7108 29.9036 27.8313C29.5422 27.9518 29.0602 28.0723 28.0964 28.1928C27.0121 28.1928 26.7711 28.1928 24 28.1928C21.2289 28.1928 20.988 28.1928 19.9036 28.1928C18.9398 28.1928 18.4578 27.9518 18.0964 27.8313C17.6145 27.5904 17.253 27.4699 16.8916 27.1084C16.5301 26.747 16.2892 26.3855 16.1687 25.9036C16.0482 25.5422 15.9277 25.0602 15.8072 24.0964C15.8072 23.0121 15.8072 22.7711 15.8072 20C15.8072 17.2289 15.8072 16.988 15.8072 15.9036C15.8072 14.9398 16.0482 14.4578 16.1687 14.0964C16.4096 13.6145 16.5301 13.253 16.8916 12.8916C17.253 12.5301 17.6145 12.2892 18.0964 12.1687C18.4578 12.0482 18.9398 11.9277 19.9036 11.8072C20.988 11.8072 21.3494 11.8072 24 11.8072ZM24 10C21.2289 10 20.988 10 19.9036 10C18.8193 10 18.0964 10.241 17.494 10.4819C16.8916 10.7229 16.2892 11.0843 15.6867 11.6867C15.0843 12.2892 14.8434 12.7711 14.4819 13.494C14.241 14.0964 14.1205 14.8193 14 15.9036C14 16.988 14 17.3494 14 20C14 22.7711 14 23.0121 14 24.0964C14 25.1807 14.241 25.9036 14.4819 26.506C14.7229 27.1084 15.0843 27.7108 15.6867 28.3133C16.2892 28.9157 16.7711 29.1566 17.494 29.5181C18.0964 29.759 18.8193 29.8795 19.9036 30C20.988 30 21.3494 30 24 30C26.6506 30 27.0121 30 28.0964 30C29.1807 30 29.9036 29.759 30.506 29.5181C31.1084 29.2771 31.7108 28.9157 32.3133 28.3133C32.9157 27.7108 33.1566 27.2289 33.5181 26.506C33.759 25.9036 33.8795 25.1807 34 24.0964C34 23.0121 34 22.6506 34 20C34 17.3494 34 16.988 34 15.9036C34 14.8193 33.759 14.0964 33.5181 13.494C33.2771 12.8916 32.9157 12.2892 32.3133 11.6867C31.7108 11.0843 31.2289 10.8434 30.506 10.4819C29.9036 10.241 29.1807 10.1205 28.0964 10C27.0121 10 26.7711 10 24 10Z" fill="white"/>
<path d="M24 14.8193C21.1084 14.8193 18.8193 17.1084 18.8193 20C18.8193 22.8916 21.1084 25.1807 24 25.1807C26.8916 25.1807 29.1807 22.8916 29.1807 20C29.1807 17.1084 26.8916 14.8193 24 14.8193ZM24 23.3735C22.1928 23.3735 20.6265 21.9277 20.6265 20C20.6265 18.1928 22.0723 16.6265 24 16.6265C25.8072 16.6265 27.3735 18.0723 27.3735 20C27.3735 21.8072 25.8072 23.3735 24 23.3735Z" fill="white"/>
<path d="M29.3012 15.9036C29.9666 15.9036 30.506 15.3642 30.506 14.6988C30.506 14.0334 29.9666 13.494 29.3012 13.494C28.6358 13.494 28.0964 14.0334 28.0964 14.6988C28.0964 15.3642 28.6358 15.9036 29.3012 15.9036Z" fill="white"/>
</g>
<defs>
<filter id="filter0_d_3708_1317" x="0" y="0" width="48" height="48" filterUnits="userSpaceOnUse" color-interpolation-filters="sRGB">
<feFlood flood-opacity="0" result="BackgroundImageFix"/>
<feColorMatrix in="SourceAlpha" type="matrix" values="0 0 0 0 0 0 0 0 0 0 0 0 0 0 0 0 0 0 127 0" result="hardAlpha"/>
<feOffset dy="4"/>
<feGaussianBlur stdDeviation="2"/>
<feComposite in2="hardAlpha" operator="out"/>
<feColorMatrix type="matrix" values="0 0 0 0 0 0 0 0 0 0 0 0 0 0 0 0 0 0 0.25 0"/>
<feBlend mode="normal" in2="BackgroundImageFix" result="effect1_dropShadow_3708_1317"/>
<feBlend mode="normal" in="SourceGraphic" in2="effect1_dropShadow_3708_1317" result="shape"/>
</filter>
<radialGradient id="paint0_radial_3708_1317" cx="0" cy="0" r="1" gradientUnits="userSpaceOnUse" gradientTransform="translate(44.8047 0.812501) scale(92.3719)">
<stop stop-color="#F9ED32"/>
<stop offset="0.36" stop-color="#EE2A7B"/>
<stop offset="0.44" stop-color="#D22A8A"/>
<stop offset="0.6" stop-color="#8B2AB2"/>
<stop offset="0.83" stop-color="#1B2AF0"/>
<stop offset="0.88" stop-color="#002AFF"/>
</radialGradient>
</defs>
</svg>
