<svg width="48" height="48" viewBox="0 0 48 48" fill="none" xmlns="http://www.w3.org/2000/svg">
<g filter="url(#filter0_d_3708_1308)">
<rect x="4" width="40" height="40" rx="20" fill="#48C95F"/>
<path d="M31.9268 12.0625C29.9512 10.0937 27.3171 9 24.5366 9C18.7561 9 14.0732 13.6667 14.0732 19.4271C14.0732 21.25 14.5854 23.0729 15.4634 24.6042L14 30L19.561 28.5417C21.0976 29.3438 22.7805 29.7812 24.5366 29.7812C30.3171 29.7812 35 25.1146 35 19.3542C34.9268 16.6563 33.9024 14.0312 31.9268 12.0625ZM29.5854 23.1458C29.3659 23.7292 28.3415 24.3125 27.8293 24.3854C27.3902 24.4583 26.8049 24.4583 26.2195 24.3125C25.8537 24.1667 25.3415 24.0208 24.7561 23.7292C22.122 22.6354 20.439 20.0104 20.2927 19.7917C20.1463 19.6458 19.1951 18.4062 19.1951 17.0937C19.1951 15.7812 19.8537 15.1979 20.0732 14.9062C20.2927 14.6146 20.5854 14.6146 20.8049 14.6146C20.9512 14.6146 21.1707 14.6146 21.3171 14.6146C21.4634 14.6146 21.6829 14.5417 21.9024 15.0521C22.122 15.5625 22.6341 16.875 22.7073 16.9479C22.7805 17.0938 22.7805 17.2396 22.7073 17.3854C22.6341 17.5312 22.561 17.6771 22.4146 17.8229C22.2683 17.9687 22.1219 18.1875 22.0488 18.2604C21.9024 18.4062 21.7561 18.5521 21.9024 18.7708C22.0488 19.0625 22.561 19.8646 23.3659 20.5937C24.3902 21.4687 25.1951 21.7604 25.4878 21.9063C25.7805 22.0521 25.9268 21.9792 26.0732 21.8333C26.2195 21.6875 26.7317 21.1042 26.878 20.8125C27.0244 20.5208 27.2439 20.5938 27.4634 20.6667C27.6829 20.7396 29 21.3958 29.2195 21.5417C29.5122 21.6875 29.6585 21.7604 29.7317 21.8333C29.8049 22.0521 29.8049 22.5625 29.5854 23.1458Z" fill="white"/>
</g>
<defs>
<filter id="filter0_d_3708_1308" x="0" y="0" width="48" height="48" filterUnits="userSpaceOnUse" color-interpolation-filters="sRGB">
<feFlood flood-opacity="0" result="BackgroundImageFix"/>
<feColorMatrix in="SourceAlpha" type="matrix" values="0 0 0 0 0 0 0 0 0 0 0 0 0 0 0 0 0 0 127 0" result="hardAlpha"/>
<feOffset dy="4"/>
<feGaussianBlur stdDeviation="2"/>
<feComposite in2="hardAlpha" operator="out"/>
<feColorMatrix type="matrix" values="0 0 0 0 0 0 0 0 0 0 0 0 0 0 0 0 0 0 0.25 0"/>
<feBlend mode="normal" in2="BackgroundImageFix" result="effect1_dropShadow_3708_1308"/>
<feBlend mode="normal" in="SourceGraphic" in2="effect1_dropShadow_3708_1308" result="shape"/>
</filter>
</defs>
</svg>
