<?xml version="1.0" encoding="UTF-8"?>
<svg xmlns="http://www.w3.org/2000/svg" xmlns:xlink="http://www.w3.org/1999/xlink" width="80px" height="61px" viewBox="0 0 80 61" version="1.1">
<g id="surface1">
<path style=" stroke:none;fill-rule:evenodd;fill:rgb(0%,42.745098%,34.509804%);fill-opacity:1;" d="M 10.867188 18.304688 L 8.140625 18.304688 L 8.140625 23.035156 L 3.785156 30.578125 L 8.140625 38.125 L 8.140625 42.824219 L 10.867188 42.824219 L 11.875 44.570312 L 15.238281 50.371094 L 18.585938 44.574219 L 19.613281 42.824219 L 22.320312 42.824219 L 22.320312 38.128906 L 23.347656 36.378906 L 26.695312 30.582031 L 23.347656 24.785156 L 22.320312 23.035156 L 22.320312 18.304688 L 19.613281 18.304688 L 18.585938 16.554688 L 15.238281 10.757812 L 10.867188 18.304688 M 7.132812 16.554688 L 11.167969 16.554688 L 15.238281 9.527344 L 19.3125 16.554688 L 23.347656 16.554688 L 23.347656 23.519531 L 27.421875 30.578125 L 23.347656 37.609375 L 23.347656 44.570312 L 19.3125 44.570312 L 15.238281 51.601562 L 11.167969 44.570312 L 7.132812 44.570312 L 7.132812 37.609375 L 3.058594 30.578125 L 7.132812 23.519531 Z M 5.203125 30.578125 L 15.238281 13.25 L 25.261719 30.578125 L 15.238281 47.910156 Z M 5.203125 30.578125 "/>
<path style=" stroke:none;fill-rule:evenodd;fill:rgb(94.509804%,64.313725%,0%);fill-opacity:1;" d="M 22.320312 25.496094 C 21.203125 27.871094 19.691406 29.597656 18.054688 30.515625 C 17.167969 31 16.425781 31.179688 15.503906 31.261719 C 14.765625 31.242188 14 31.453125 13.34375 32.101562 C 12.164062 33.222656 11.320312 35.335938 11.257812 37.804688 C 11.152344 42.839844 13.5625 44.230469 15.238281 47.910156 L 18.179688 42.824219 L 22.320312 35.632812 L 25.261719 30.582031 L 22.320312 25.496094 M 8.140625 35.632812 C 9.234375 33.417969 10.636719 31.6875 12.195312 30.773438 C 13.90625 29.507812 15.359375 30.328125 16.78125 29.316406 C 17.957031 28.519531 18.875 26.601562 19.152344 24.363281 C 19.6875 18.859375 17.113281 16.941406 15.238281 13.253906 L 12.300781 18.304688 L 8.140625 25.496094 L 5.203125 30.578125 Z M 3.785156 30.578125 L 8.140625 23.03125 L 8.140625 18.304688 L 10.867188 18.304688 L 15.238281 10.757812 L 19.613281 18.304688 L 22.320312 18.304688 L 22.320312 23.03125 L 26.695312 30.578125 L 22.320312 38.125 L 22.320312 42.824219 L 19.613281 42.824219 L 15.238281 50.371094 L 10.867188 42.824219 L 8.140625 42.824219 L 8.140625 38.125 L 3.785156 30.582031 Z M 3.785156 30.578125 "/>
<path style=" stroke:none;fill-rule:evenodd;fill:rgb(0%,42.745098%,34.509804%);fill-opacity:1;" d="M 44.824219 40.363281 L 43.214844 34.757812 L 41.585938 40.363281 L 44.824219 40.363281 M 29.828125 38.96875 L 29.828125 42.464844 L 34.644531 42.464844 L 34.75 42.402344 L 34.785156 42.402344 C 34.894531 42.347656 34.988281 42.238281 35.085938 42.144531 L 35.140625 42.078125 L 35.210938 41.949219 L 35.265625 41.820312 L 35.335938 41.6875 L 35.371094 41.5625 C 35.445312 41.417969 35.460938 41.191406 35.492188 41.011719 C 35.507812 40.464844 35.484375 40.035156 35.265625 39.617188 L 35.210938 39.488281 L 35.140625 39.390625 L 35.050781 39.261719 L 34.964844 39.195312 L 34.875 39.097656 L 34.839844 39.066406 L 34.785156 39.035156 C 33.164062 38.644531 31.5 38.746094 29.828125 38.96875 Z M 29.828125 33.367188 L 29.828125 36.863281 L 34.644531 36.863281 L 34.699219 36.832031 L 34.75 36.832031 L 34.785156 36.796875 C 34.890625 36.726562 35.003906 36.65625 35.085938 36.507812 C 35.210938 36.4375 35.3125 36.164062 35.371094 35.957031 C 35.449219 35.800781 35.46875 35.570312 35.492188 35.375 C 35.507812 34.789062 35.480469 34.476562 35.265625 34.011719 L 35.210938 33.882812 L 35.140625 33.753906 L 35.050781 33.6875 L 34.875 33.496094 L 34.839844 33.460938 L 34.785156 33.460938 L 34.75 33.429688 L 34.699219 33.398438 L 34.644531 33.398438 L 34.589844 33.363281 L 29.828125 33.363281 Z M 48.878906 31.261719 L 50.898438 31.261719 L 56.582031 41.074219 L 56.582031 31.261719 L 58.597656 31.261719 L 58.597656 44.574219 L 56.582031 44.574219 L 50.898438 34.757812 L 50.898438 44.574219 L 48.878906 44.574219 Z M 62.902344 37.933594 L 68.125 31.261719 L 65.894531 31.261719 L 61.449219 36.863281 L 61.449219 31.261719 L 59.414062 31.261719 L 59.414062 44.574219 L 61.449219 44.574219 L 61.449219 38.96875 L 65.894531 44.570312 L 68.125 44.570312 Z M 63.875 16.554688 L 65.894531 16.554688 L 65.894531 22.160156 L 70.355469 16.554688 L 72.585938 16.554688 L 67.363281 23.226562 L 72.585938 29.867188 L 70.355469 29.867188 L 65.894531 24.265625 L 65.894531 29.867188 L 63.875 29.867188 Z M 59.414062 24.265625 L 59.414062 29.867188 L 57.394531 29.867188 L 57.394531 24.265625 L 53.535156 16.554688 L 55.570312 16.554688 L 58.402344 22.160156 L 61.238281 16.554688 L 63.273438 16.554688 Z M 48.878906 16.554688 L 50.898438 16.554688 L 50.898438 27.761719 L 56.582031 27.761719 L 56.582031 29.867188 L 48.878906 29.867188 Z M 43.214844 20.054688 L 44.824219 25.65625 L 41.585938 25.65625 Z M 46.046875 29.867188 L 48.066406 29.867188 L 44.222656 16.554688 L 42.1875 16.554688 L 38.34375 29.867188 L 40.363281 29.867188 L 40.964844 27.761719 L 45.425781 27.761719 Z M 27.808594 16.554688 L 29.828125 16.554688 L 29.828125 22.160156 L 35.492188 22.160156 L 35.492188 16.554688 L 37.53125 16.554688 L 37.53125 29.867188 L 35.492188 29.867188 L 35.492188 24.265625 L 29.828125 24.265625 L 29.828125 29.867188 L 27.808594 29.867188 Z M 27.808594 31.261719 L 35.707031 31.261719 L 35.796875 31.292969 L 35.902344 31.292969 L 35.988281 31.324219 L 36.078125 31.390625 L 36.167969 31.421875 L 36.273438 31.488281 C 36.5 31.625 36.707031 31.855469 36.894531 32.136719 C 37.265625 32.761719 37.5 33.5 37.53125 34.433594 C 37.574219 36.410156 36.648438 37.917969 35.601562 37.933594 C 36.585938 37.867188 37.539062 39.394531 37.53125 41.238281 C 37.539062 42.136719 37.3125 42.980469 36.964844 43.601562 C 36.78125 43.910156 36.578125 44.164062 36.34375 44.3125 L 36.273438 44.378906 L 36.167969 44.410156 L 36.078125 44.476562 L 35.988281 44.507812 L 35.902344 44.539062 L 35.796875 44.574219 L 27.808594 44.574219 Z M 40.363281 44.570312 L 38.34375 44.570312 L 42.1875 31.261719 L 44.222656 31.261719 L 48.066406 44.570312 L 46.046875 44.570312 L 45.425781 42.464844 L 40.964844 42.464844 Z M 40.363281 44.570312 "/>
<path style=" stroke:none;fill-rule:evenodd;fill:rgb(12.156863%,10.196078%,9.019608%);fill-opacity:1;" d="M 38.414062 9.558594 L 40.042969 9.558594 L 40.042969 9.917969 L 39.390625 9.917969 L 39.390625 11.664062 L 39.070312 11.664062 L 39.070312 9.917969 L 38.414062 9.917969 L 38.414062 9.558594 M 26.324219 10.953125 L 26.589844 10.078125 L 26.855469 10.953125 Z M 26.746094 9.558594 L 26.429688 9.558594 L 25.773438 11.664062 L 26.09375 11.664062 L 26.21875 11.308594 L 26.960938 11.308594 L 27.066406 11.664062 L 27.402344 11.664062 Z M 28.570312 9.558594 C 28.332031 9.632812 28.375 9.90625 28.375 10.273438 L 28.695312 10.273438 L 28.695312 9.917969 L 29.511719 9.917969 L 29.511719 10.433594 L 29.101562 10.433594 L 29.101562 10.792969 L 29.511719 10.792969 L 29.511719 11.308594 L 28.695312 11.308594 L 28.695312 10.953125 L 28.375 10.953125 C 28.386719 11.167969 28.328125 11.488281 28.464844 11.601562 L 28.535156 11.664062 L 29.667969 11.664062 L 29.738281 11.601562 C 29.867188 11.496094 29.828125 11.058594 29.828125 10.886719 C 29.785156 10.71875 29.746094 10.601562 29.632812 10.628906 L 29.667969 10.597656 L 29.703125 10.597656 L 29.738281 10.5625 L 29.792969 10.46875 L 29.828125 10.335938 L 29.828125 9.851562 L 29.777344 9.65625 L 29.738281 9.625 L 29.703125 9.59375 L 29.667969 9.558594 Z M 31.332031 10.953125 L 31.617188 10.078125 L 31.882812 10.953125 Z M 31.777344 9.558594 L 31.441406 9.558594 L 30.800781 11.664062 L 31.121094 11.664062 L 31.226562 11.308594 L 31.988281 11.308594 L 32.09375 11.664062 L 32.429688 11.664062 Z M 36.023438 9.558594 L 37.28125 9.558594 L 37.386719 9.65625 C 37.488281 10.015625 37.417969 9.722656 37.441406 10.273438 L 37.121094 10.273438 L 37.121094 9.917969 L 36.148438 9.917969 L 36.148438 11.308594 L 37.121094 11.308594 L 37.121094 10.953125 L 37.441406 10.953125 L 37.441406 11.375 L 37.386719 11.570312 L 37.28125 11.664062 L 35.988281 11.664062 L 35.882812 11.570312 L 35.832031 11.375 L 35.832031 9.851562 C 35.875 9.660156 35.902344 9.585938 36.023438 9.558594 Z M 41.550781 10.953125 L 41.832031 10.078125 L 42.097656 10.953125 Z M 41.992188 9.558594 L 41.65625 9.558594 L 41.019531 11.664062 L 41.335938 11.664062 L 41.441406 11.308594 L 42.203125 11.308594 L 42.308594 11.664062 L 42.628906 11.664062 Z M 43.601562 9.558594 L 43.9375 9.558594 L 43.9375 10.433594 L 44.894531 10.433594 L 44.894531 9.558594 L 45.230469 9.558594 L 45.230469 11.664062 L 44.894531 11.664062 L 44.894531 10.792969 L 43.9375 10.792969 L 43.9375 11.664062 L 43.601562 11.664062 Z M 23.347656 9.558594 L 23.667969 9.558594 L 23.667969 10.433594 L 24.410156 9.558594 L 24.800781 9.558594 L 23.914062 10.628906 L 24.660156 11.472656 L 24.800781 11.472656 L 24.589844 12.054688 L 24.429688 12.054688 L 24.480469 11.664062 L 24.410156 11.664062 L 23.667969 10.792969 L 23.667969 11.664062 L 23.347656 11.664062 Z M 62.53125 10.792969 L 62.53125 11.308594 L 63.21875 11.308594 L 63.253906 11.277344 L 63.289062 11.277344 L 63.324219 11.210938 L 63.34375 11.148438 L 63.34375 10.953125 L 63.324219 10.886719 L 63.289062 10.824219 L 63.253906 10.792969 Z M 62.210938 9.558594 L 63.503906 9.558594 L 63.503906 9.917969 L 62.53125 9.917969 L 62.53125 10.433594 L 63.378906 10.433594 L 63.449219 10.5 L 63.484375 10.5 L 63.503906 10.53125 L 63.539062 10.5625 L 63.609375 10.695312 L 63.644531 10.824219 L 63.664062 10.855469 L 63.664062 11.246094 L 63.644531 11.277344 L 63.628906 11.339844 L 63.609375 11.375 L 63.589844 11.4375 L 63.574219 11.472656 L 63.539062 11.503906 L 63.503906 11.570312 L 63.484375 11.601562 L 63.449219 11.601562 L 63.414062 11.632812 L 63.378906 11.632812 L 63.34375 11.664062 L 62.210938 11.664062 Z M 65.183594 10.953125 L 65.449219 10.078125 L 65.714844 10.953125 Z M 65.609375 9.558594 L 65.292969 9.558594 L 64.636719 11.664062 L 64.972656 11.664062 L 65.078125 11.308594 L 65.824219 11.308594 L 65.945312 11.664062 L 66.265625 11.664062 Z M 67.238281 9.558594 L 67.558594 9.558594 L 67.558594 10.433594 L 68.53125 10.433594 L 68.53125 9.558594 L 68.851562 9.558594 L 68.851562 11.664062 L 68.53125 11.664062 L 68.53125 10.792969 L 67.558594 10.792969 L 67.558594 11.664062 L 67.238281 11.664062 Z M 69.824219 9.558594 L 70.160156 9.558594 L 70.160156 10.433594 L 70.902344 9.558594 L 71.292969 9.558594 L 70.40625 10.628906 L 71.292969 11.664062 L 70.902344 11.664062 L 70.160156 10.792969 L 70.160156 11.664062 L 69.824219 11.664062 Z M 72.265625 11.664062 L 72.265625 9.558594 L 72.585938 9.558594 L 72.585938 11.664062 Z M 48.472656 10.792969 L 48.027344 11.664062 L 47.65625 11.664062 L 48.1875 10.628906 L 47.65625 9.558594 L 48.027344 9.558594 L 48.472656 10.433594 L 48.914062 9.558594 L 49.285156 9.558594 L 48.738281 10.628906 L 49.285156 11.664062 L 48.914062 11.664062 Z M 50.792969 10.953125 L 51.054688 10.078125 L 51.339844 10.953125 Z M 51.234375 9.558594 L 50.898438 9.558594 L 50.261719 11.664062 L 50.578125 11.664062 L 50.683594 11.308594 L 51.445312 11.308594 L 51.550781 11.664062 L 51.871094 11.664062 Z M 55.765625 10.792969 L 55.765625 11.308594 L 56.457031 11.308594 L 56.492188 11.277344 L 56.507812 11.277344 L 56.546875 11.210938 L 56.5625 11.148438 L 56.582031 11.113281 L 56.582031 10.984375 L 56.5625 10.953125 L 56.546875 10.886719 L 56.511719 10.824219 L 56.492188 10.792969 Z M 57.058594 11.664062 L 57.058594 9.558594 L 57.394531 9.558594 L 57.394531 11.664062 Z M 55.429688 9.558594 L 55.765625 9.558594 L 55.765625 10.433594 L 56.617188 10.433594 L 56.6875 10.5 L 56.703125 10.5 L 56.773438 10.5625 C 56.828125 10.746094 56.914062 10.808594 56.898438 11.050781 L 56.898438 11.179688 L 56.882812 11.246094 L 56.882812 11.277344 L 56.828125 11.375 L 56.8125 11.4375 L 56.738281 11.570312 L 56.703125 11.601562 L 56.6875 11.601562 L 56.652344 11.632812 L 56.617188 11.632812 L 56.582031 11.664062 L 55.429688 11.664062 Z M 53.820312 9.558594 L 53.5 9.558594 L 52.84375 11.664062 L 53.164062 11.664062 L 53.660156 10.078125 L 54.136719 11.664062 L 54.472656 11.664062 Z M 58.351562 9.558594 L 58.6875 9.558594 L 58.6875 10.433594 L 59.429688 9.558594 L 59.820312 9.558594 L 58.933594 10.628906 L 59.660156 11.472656 L 59.820312 11.472656 L 59.609375 12.054688 L 59.429688 12.054688 L 59.5 11.664062 L 59.429688 11.664062 L 58.6875 10.792969 L 58.6875 11.664062 L 58.351562 11.664062 Z M 71.503906 50.890625 L 71.769531 50.015625 L 72.054688 50.890625 Z M 64.636719 49.496094 L 66.265625 49.496094 L 66.265625 49.820312 L 65.628906 49.820312 L 65.628906 51.566406 L 65.292969 51.566406 L 65.292969 49.820312 L 64.636719 49.820312 Z M 54.351562 50.886719 L 54.617188 50.011719 L 54.898438 50.886719 Z M 54.792969 49.496094 L 54.457031 49.496094 L 53.820312 51.566406 L 54.136719 51.566406 L 54.242188 51.246094 L 55.003906 51.246094 L 55.109375 51.566406 L 55.429688 51.566406 Z M 56.171875 49.496094 L 56.101562 49.496094 L 56.066406 49.527344 L 56.015625 49.625 L 55.980469 49.753906 L 55.980469 50.175781 L 56.296875 50.175781 L 56.296875 49.820312 L 57.113281 49.820312 L 57.113281 50.335938 L 56.703125 50.335938 L 56.703125 50.695312 L 57.113281 50.695312 L 57.113281 51.246094 L 56.296875 51.246094 L 56.296875 50.886719 L 55.980469 50.886719 C 55.996094 51.242188 55.929688 51.308594 56.066406 51.535156 L 56.101562 51.570312 L 57.304688 51.570312 L 57.34375 51.535156 C 57.480469 51.324219 57.417969 51.175781 57.429688 50.824219 C 57.398438 50.667969 57.335938 50.515625 57.234375 50.53125 L 57.269531 50.53125 L 57.324219 50.5 L 57.34375 50.46875 L 57.378906 50.433594 C 57.476562 50.074219 57.40625 50.367188 57.429688 49.820312 L 57.429688 49.753906 L 57.394531 49.625 L 57.378906 49.59375 L 57.34375 49.527344 L 57.308594 49.496094 Z M 58.527344 50.886719 L 58.792969 50.011719 L 59.058594 50.886719 Z M 58.953125 49.496094 L 58.632812 49.496094 L 57.980469 51.566406 L 58.296875 51.566406 L 58.402344 51.246094 L 59.164062 51.246094 L 59.273438 51.566406 L 59.609375 51.566406 Z M 60.953125 50.695312 L 60.511719 51.566406 L 60.140625 51.566406 L 60.671875 50.53125 L 60.140625 49.496094 L 60.511719 49.496094 L 60.953125 50.335938 L 61.394531 49.496094 L 61.769531 49.496094 L 61.238281 50.53125 L 61.769531 51.566406 L 61.394531 51.566406 Z M 62.601562 49.496094 L 63.894531 49.496094 L 63.929688 49.527344 L 63.980469 49.625 L 64.015625 49.753906 L 64.015625 50.175781 L 63.699219 50.175781 L 63.699219 49.820312 L 62.722656 49.820312 L 62.722656 51.246094 L 63.699219 51.246094 L 63.699219 50.886719 L 64.015625 50.886719 C 64 51.242188 64.066406 51.308594 63.929688 51.535156 L 63.894531 51.570312 L 62.53125 51.570312 L 62.492188 51.535156 L 62.441406 51.441406 L 62.40625 51.308594 L 62.40625 49.753906 C 62.449219 49.585938 62.488281 49.46875 62.601562 49.496094 Z M 67.167969 50.886719 L 67.453125 50.011719 L 67.71875 50.886719 Z M 67.609375 49.496094 L 67.292969 49.496094 L 66.636719 51.566406 L 66.957031 51.566406 L 67.0625 51.246094 L 67.824219 51.246094 L 67.929688 51.566406 L 68.246094 51.566406 Z M 68.796875 49.496094 L 69.132812 49.496094 L 69.132812 50.335938 L 70.089844 50.335938 L 70.089844 49.496094 L 70.425781 49.496094 L 70.425781 51.566406 L 70.089844 51.566406 L 70.089844 50.695312 L 69.132812 50.695312 L 69.132812 51.566406 L 68.796875 51.566406 Z M 51.816406 49.496094 L 52.136719 49.496094 L 52.136719 50.335938 L 52.878906 49.496094 L 53.269531 49.496094 L 52.382812 50.53125 L 53.269531 51.566406 L 52.878906 51.566406 L 52.136719 50.695312 L 52.136719 51.566406 L 51.816406 51.566406 Z M 71.929688 49.496094 L 71.613281 49.496094 L 70.957031 51.566406 L 71.292969 51.566406 L 71.398438 51.246094 L 72.160156 51.246094 L 72.265625 51.566406 L 72.585938 51.566406 Z M 23.347656 49.496094 L 23.667969 49.496094 L 23.667969 50.335938 L 24.640625 50.335938 L 24.640625 49.496094 L 24.960938 49.496094 L 24.960938 51.566406 L 24.640625 51.566406 L 24.640625 50.695312 L 23.667969 50.695312 L 23.667969 51.566406 L 23.347656 51.566406 Z M 26.058594 50.886719 L 26.324219 50.011719 L 26.589844 50.886719 Z M 26.480469 49.496094 L 26.164062 49.496094 L 25.507812 51.566406 L 25.828125 51.566406 L 25.933594 51.246094 L 26.695312 51.246094 L 26.800781 51.566406 L 27.136719 51.566406 Z M 30.003906 51.246094 L 30.003906 49.820312 L 30.980469 49.820312 L 30.980469 51.246094 Z M 29.882812 49.496094 L 31.175781 49.496094 L 31.210938 49.527344 L 31.226562 49.59375 L 31.261719 49.625 L 31.296875 49.753906 L 31.296875 51.308594 L 31.261719 51.4375 L 31.226562 51.472656 L 31.210938 51.535156 L 31.175781 51.570312 L 29.792969 51.570312 L 29.757812 51.535156 L 29.738281 51.472656 L 29.703125 51.441406 L 29.6875 51.375 L 29.6875 51.308594 L 29.667969 51.246094 L 29.667969 49.820312 L 29.6875 49.753906 L 29.6875 49.691406 L 29.703125 49.625 L 29.738281 49.59375 L 29.757812 49.527344 L 29.792969 49.496094 Z M 27.988281 50.335938 L 27.988281 49.820312 L 28.695312 49.820312 L 28.714844 49.851562 L 28.75 49.886719 L 28.800781 49.980469 L 28.800781 50.046875 L 28.820312 50.078125 L 28.800781 50.144531 L 28.800781 50.207031 L 28.75 50.304688 L 28.714844 50.339844 L 27.988281 50.339844 Z M 27.667969 51.566406 L 27.988281 51.566406 L 27.988281 50.695312 L 28.890625 50.695312 L 28.90625 50.660156 L 28.980469 50.597656 L 28.996094 50.5625 L 29.03125 50.53125 L 29.050781 50.46875 L 29.066406 50.433594 L 29.085938 50.371094 L 29.101562 50.335938 L 29.121094 50.273438 L 29.121094 50.144531 L 29.140625 50.078125 L 29.121094 50.046875 L 29.121094 49.917969 L 29.085938 49.785156 L 29.070312 49.753906 L 29.050781 49.691406 L 29.03125 49.65625 L 28.996094 49.625 L 28.980469 49.589844 L 28.910156 49.527344 L 28.890625 49.496094 L 27.667969 49.496094 L 27.667969 51.570312 Z M 32.273438 51.246094 L 33.140625 51.246094 L 33.140625 49.820312 C 32.433594 49.734375 32.183594 49.878906 32.273438 51.246094 Z M 31.847656 51.246094 L 32.007812 51.246094 C 32.0625 50.375 31.886719 50.390625 32.183594 49.785156 L 32.21875 49.722656 L 32.324219 49.59375 L 32.378906 49.5625 L 32.484375 49.496094 L 33.457031 49.496094 L 33.457031 51.246094 L 33.617188 51.246094 L 33.617188 51.570312 L 31.847656 51.570312 Z M 34.167969 49.496094 L 34.484375 49.496094 L 34.484375 50.335938 L 35.457031 50.335938 L 35.457031 49.496094 L 35.777344 49.496094 L 35.777344 51.566406 L 35.457031 51.566406 L 35.457031 50.695312 L 34.484375 50.695312 L 34.484375 51.566406 L 34.167969 51.566406 Z M 36.664062 50.695312 L 36.664062 51.246094 L 37.316406 51.246094 L 37.351562 51.210938 L 37.371094 51.210938 L 37.40625 51.179688 L 37.460938 51.082031 L 37.460938 51.019531 L 37.476562 50.953125 L 37.460938 50.921875 L 37.460938 50.855469 L 37.40625 50.757812 L 37.371094 50.726562 L 37.351562 50.726562 L 37.316406 50.695312 Z M 37.957031 51.566406 L 37.957031 49.496094 L 38.273438 49.496094 L 38.273438 51.566406 Z M 36.328125 49.496094 L 36.664062 49.496094 L 36.664062 50.335938 L 37.425781 50.335938 L 37.476562 50.371094 L 37.546875 50.371094 L 37.566406 50.402344 L 37.601562 50.4375 L 37.636719 50.46875 L 37.652344 50.5 L 37.691406 50.535156 L 37.707031 50.566406 L 37.726562 50.632812 L 37.742188 50.664062 L 37.777344 50.792969 L 37.777344 50.921875 L 37.796875 50.953125 L 37.777344 51.019531 L 37.777344 51.148438 L 37.761719 51.214844 L 37.742188 51.246094 L 37.726562 51.3125 L 37.707031 51.34375 L 37.691406 51.410156 L 37.652344 51.441406 L 37.636719 51.472656 L 37.566406 51.539062 L 37.546875 51.570312 L 36.328125 51.570312 Z M 39.320312 49.496094 L 39.320312 49.140625 L 39.9375 49.140625 L 39.9375 49.496094 Z M 40.433594 49.496094 L 40.113281 49.496094 L 39.140625 51.019531 L 39.140625 49.496094 L 38.824219 49.496094 L 38.824219 51.566406 L 39.140625 51.566406 L 40.113281 50.046875 L 40.113281 51.566406 L 40.433594 51.566406 Z M 42.71875 50.695312 L 42.71875 51.246094 L 43.371094 51.246094 L 43.40625 51.210938 L 43.445312 51.210938 L 43.515625 51.082031 L 43.53125 51.019531 L 43.53125 50.921875 L 43.515625 50.855469 L 43.445312 50.726562 L 43.40625 50.726562 L 43.371094 50.695312 Z M 42.398438 49.496094 L 43.691406 49.496094 L 43.691406 49.820312 L 42.71875 49.820312 L 42.71875 50.335938 L 43.496094 50.335938 L 43.53125 50.371094 L 43.601562 50.371094 L 43.636719 50.402344 C 43.671875 50.4375 43.738281 50.507812 43.761719 50.566406 C 43.847656 50.753906 43.8125 50.667969 43.851562 50.855469 C 43.855469 51.082031 43.851562 51.019531 43.832031 51.214844 L 43.796875 51.246094 L 43.796875 51.308594 L 43.761719 51.34375 L 43.746094 51.40625 L 43.726562 51.441406 L 43.691406 51.472656 L 43.671875 51.503906 L 43.636719 51.539062 L 43.601562 51.570312 L 42.398438 51.570312 Z M 44.859375 50.886719 L 45.144531 50.011719 L 45.410156 50.886719 Z M 45.300781 49.496094 L 44.964844 49.496094 L 44.328125 51.566406 L 44.648438 51.566406 L 44.753906 51.246094 L 45.515625 51.246094 L 45.621094 51.566406 L 45.941406 51.566406 Z M 46.488281 49.496094 L 46.808594 49.496094 L 46.808594 50.335938 L 47.78125 50.335938 L 47.78125 49.496094 L 48.117188 49.496094 L 48.117188 51.566406 L 47.78125 51.566406 L 47.78125 50.695312 L 46.808594 50.695312 L 46.808594 51.566406 L 46.488281 51.566406 Z M 48.71875 49.496094 L 49.039062 49.496094 L 49.039062 50.335938 L 49.800781 49.496094 L 50.171875 49.496094 L 49.304688 50.53125 L 50.171875 51.566406 L 49.800781 51.566406 L 49.039062 50.695312 L 49.039062 51.566406 L 48.71875 51.566406 Z M 33.40625 9.558594 L 33.722656 9.558594 L 33.722656 10.433594 L 34.46875 9.558594 L 34.855469 9.558594 L 33.972656 10.628906 L 34.714844 11.46875 L 34.855469 11.46875 L 34.644531 12.054688 L 34.46875 12.054688 L 34.539062 11.664062 L 34.46875 11.664062 L 33.722656 10.789062 L 33.722656 11.664062 L 33.40625 11.664062 Z M 33.40625 9.558594 "/>
</g>
</svg>
