<?xml version="1.0" encoding="UTF-8"?>
<svg xmlns="http://www.w3.org/2000/svg" xmlns:xlink="http://www.w3.org/1999/xlink" width="80px" height="px" viewBox="0 0 79 60" version="1.1">
<g id="surface1">
<path style=" stroke:none;fill-rule:nonzero;fill:rgb(0%,0%,0%);fill-opacity:1;" d="M 11.960938 13.980469 C 7.570312 14.578125 3.578125 17.375 1.710938 21.191406 C 0.484375 23.652344 0.152344 25.050781 0.132812 27.625 C 0.132812 29.578125 0.21875 30.398438 0.636719 31.730469 C 1.601562 34.902344 3.664062 38.097656 5.289062 38.941406 L 5.902344 39.273438 L 6.167969 38.34375 C 6.5625 36.902344 6.515625 33.816406 6.078125 32.417969 C 5.597656 30.867188 5.617188 30.042969 6.144531 27.605469 C 6.386719 26.515625 6.582031 25.097656 6.582031 24.476562 C 6.582031 23.453125 6.671875 23.1875 7.351562 22.433594 C 8.054688 21.65625 8.121094 21.457031 8.121094 20.238281 C 8.121094 18.992188 8.164062 18.859375 8.867188 18.238281 C 9.898438 17.328125 10.535156 17.152344 10.90625 17.664062 C 11.28125 18.171875 11.257812 18.507812 10.839844 19.347656 C 10.027344 20.945312 10.027344 21.234375 11.039062 22.476562 C 11.566406 23.121094 12.199219 24.253906 12.464844 24.984375 C 13.167969 26.9375 13.453125 27.136719 15.40625 27.046875 C 16.65625 26.980469 17.160156 26.847656 17.753906 26.425781 C 18.457031 25.917969 18.476562 25.851562 18.367188 24.785156 C 18.214844 23.585938 18.390625 23.078125 19.265625 22.121094 C 19.664062 21.703125 20.058594 21.523438 20.5625 21.523438 C 21.21875 21.523438 21.285156 21.589844 21.285156 22.1875 C 21.285156 22.542969 21.089844 23.164062 20.847656 23.566406 C 20.210938 24.652344 20.253906 25.296875 21 25.296875 C 21.460938 25.296875 21.945312 24.941406 22.953125 23.875 C 23.679688 23.097656 24.488281 22.34375 24.753906 22.210938 C 25.191406 21.96875 25.234375 22.011719 25.234375 22.609375 C 25.234375 23.675781 24.886719 24.320312 23.503906 25.828125 C 21.746094 27.738281 21.417969 28.425781 21.59375 29.824219 C 21.835938 31.886719 23.394531 35.902344 24.25 36.613281 C 24.578125 36.878906 24.664062 36.855469 25.039062 36.390625 C 25.980469 35.191406 27.410156 31.820312 27.671875 30.265625 C 28.285156 26.472656 26.902344 21.523438 24.445312 18.683594 C 21.484375 15.242188 16.503906 13.378906 11.960938 13.980469 Z M 11.960938 13.980469 "/>
<path style=" stroke:none;fill-rule:nonzero;fill:rgb(0%,0%,0%);fill-opacity:1;" d="M 76.894531 20.726562 C 76.828125 20.902344 76.804688 21.367188 76.847656 21.789062 C 76.914062 22.5 76.960938 22.523438 77.96875 22.589844 L 79 22.65625 L 79 20.414062 L 78.011719 20.414062 C 77.355469 20.414062 76.980469 20.523438 76.894531 20.726562 Z M 76.894531 20.726562 "/>
<path style=" stroke:none;fill-rule:nonzero;fill:rgb(0%,0%,0%);fill-opacity:1;" d="M 33.136719 27.183594 L 33.136719 33.726562 L 35.109375 33.726562 L 35.109375 32.109375 C 35.109375 30.578125 35.15625 30.445312 35.769531 29.84375 C 36.339844 29.289062 36.472656 29.246094 36.648438 29.511719 C 36.757812 29.6875 37.371094 30.710938 38.007812 31.773438 L 39.171875 33.707031 L 40.445312 33.726562 C 41.125 33.726562 41.695312 33.683594 41.695312 33.617188 C 41.695312 33.550781 40.839844 32.195312 39.785156 30.597656 L 37.875 27.691406 L 39.71875 25.9375 L 41.585938 24.207031 L 40.269531 24.1875 L 38.953125 24.1875 L 37.042969 26.117188 L 35.109375 28.070312 L 35.109375 20.636719 L 33.136719 20.636719 Z M 33.136719 27.183594 "/>
<path style=" stroke:none;fill-rule:nonzero;fill:rgb(0%,0%,0%);fill-opacity:1;" d="M 45.492188 24.386719 C 44.523438 24.828125 44.019531 25.453125 43.777344 26.449219 C 43.625 27.046875 43.648438 27.070312 44.636719 27.070312 C 45.335938 27.070312 45.644531 26.980469 45.644531 26.78125 C 45.644531 26.09375 46.632812 25.519531 47.773438 25.519531 C 49.066406 25.519531 49.59375 25.960938 49.59375 27.027344 C 49.59375 27.804688 49.550781 27.824219 47.289062 28.179688 C 45.050781 28.558594 44.414062 28.800781 43.777344 29.535156 C 42.792969 30.753906 43.1875 32.90625 44.546875 33.617188 C 45.46875 34.105469 47.664062 34.039062 48.761719 33.507812 C 49.636719 33.085938 49.660156 33.085938 50.011719 33.507812 C 50.363281 33.925781 50.714844 34.015625 51.964844 33.972656 C 52.621094 33.949219 52.667969 33.90625 52.667969 33.171875 C 52.667969 32.550781 52.578125 32.394531 52.226562 32.394531 C 51.722656 32.394531 51.722656 32.484375 51.699219 28.800781 C 51.679688 25.652344 51.460938 25.097656 50.011719 24.363281 C 48.980469 23.832031 46.699219 23.832031 45.492188 24.386719 Z M 49.550781 30.3125 C 49.484375 31.375 49.398438 31.640625 48.914062 31.996094 C 48.101562 32.617188 46.675781 32.773438 45.972656 32.308594 C 45.292969 31.863281 45.207031 30.664062 45.820312 30.089844 C 46.148438 29.800781 47.882812 29.3125 49.441406 29.089844 C 49.527344 29.089844 49.59375 29.621094 49.550781 30.3125 Z M 49.550781 30.3125 "/>
<path style=" stroke:none;fill-rule:nonzero;fill:rgb(0%,0%,0%);fill-opacity:1;" d="M 56.066406 24.363281 C 55.585938 24.585938 55.058594 24.941406 54.90625 25.117188 C 54.421875 25.71875 54.226562 26.78125 54.445312 27.625 C 54.707031 28.558594 55.605469 29.089844 57.84375 29.644531 C 59.84375 30.132812 60.347656 30.464844 60.347656 31.285156 C 60.347656 32.953125 56.683594 33.0625 56.265625 31.398438 C 56.15625 30.910156 56.003906 30.84375 55.167969 30.84375 C 54.335938 30.84375 54.203125 30.910156 54.203125 31.285156 C 54.203125 33.328125 57.210938 34.683594 59.972656 33.859375 C 61.355469 33.460938 62.234375 32.597656 62.453125 31.421875 C 62.738281 29.800781 61.597656 28.691406 58.988281 28.070312 C 57.121094 27.625 56.398438 27.226562 56.398438 26.628906 C 56.398438 25.917969 57.011719 25.519531 58.128906 25.519531 C 58.941406 25.519531 59.273438 25.628906 59.644531 26.027344 C 59.910156 26.316406 60.128906 26.671875 60.128906 26.804688 C 60.128906 26.980469 60.5 27.070312 61.117188 27.070312 C 61.949219 27.070312 62.101562 27.003906 62.101562 26.628906 C 62.101562 25.871094 61.597656 25.074219 60.828125 24.585938 C 59.753906 23.921875 57.273438 23.785156 56.066406 24.363281 Z M 56.066406 24.363281 "/>
<path style=" stroke:none;fill-rule:nonzero;fill:rgb(0%,0%,0%);fill-opacity:1;" d="M 68.464844 24.207031 C 68.160156 24.339844 67.699219 24.652344 67.433594 24.894531 L 66.929688 25.363281 L 66.929688 24.785156 C 66.929688 24.230469 66.863281 24.1875 65.941406 24.1875 L 64.957031 24.1875 L 64.957031 37.277344 L 66.929688 37.277344 L 66.929688 32.550781 L 67.433594 32.996094 C 68.246094 33.75 68.882812 33.972656 70.113281 33.972656 C 71.40625 33.972656 72 33.75 72.921875 32.863281 C 75.183594 30.753906 74.566406 25.628906 71.910156 24.386719 C 70.925781 23.941406 69.34375 23.855469 68.464844 24.207031 Z M 71.277344 26.382812 C 72.722656 27.871094 72.460938 30.953125 70.769531 32.085938 C 70.089844 32.550781 68.640625 32.394531 67.984375 31.796875 C 66.910156 30.84375 66.625 28.757812 67.347656 27.160156 C 67.851562 26.027344 68.292969 25.761719 69.609375 25.738281 C 70.441406 25.738281 70.75 25.851562 71.277344 26.382812 Z M 71.277344 26.382812 "/>
<path style=" stroke:none;fill-rule:nonzero;fill:rgb(0%,0%,0%);fill-opacity:1;" d="M 76.960938 24.339844 C 76.871094 24.410156 76.804688 26.5625 76.804688 29.113281 L 76.804688 33.726562 L 79 33.726562 L 79 24.1875 L 78.054688 24.1875 C 77.53125 24.1875 77.023438 24.253906 76.960938 24.339844 Z M 76.960938 24.339844 "/>
<path style=" stroke:none;fill-rule:nonzero;fill:rgb(0%,0%,0%);fill-opacity:1;" d="M 12.882812 29.246094 C 11.914062 30.332031 11.675781 32.351562 11.9375 37.34375 C 12.15625 41.40625 12.3125 41.671875 14.375 41.871094 C 16.0625 42.027344 17.445312 41.648438 17.929688 40.894531 C 18.433594 40.117188 18.390625 38.121094 17.773438 34.617188 C 16.984375 30.109375 16.480469 29.289062 14.265625 28.957031 C 13.429688 28.847656 13.210938 28.890625 12.882812 29.246094 Z M 12.882812 29.246094 "/>
<path style=" stroke:none;fill-rule:nonzero;fill:rgb(0%,0%,0%);fill-opacity:1;" d="M 8.601562 34.660156 C 8.425781 34.835938 8.339844 35.835938 8.339844 37.632812 C 8.339844 40.429688 8.515625 41.050781 9.347656 41.050781 C 9.589844 41.050781 9.65625 40.585938 9.65625 38.699219 C 9.65625 36.5 9.347656 34.394531 9.019531 34.394531 C 8.929688 34.394531 8.753906 34.503906 8.601562 34.660156 Z M 8.601562 34.660156 "/>
<path style=" stroke:none;fill-rule:nonzero;fill:rgb(0%,0%,0%);fill-opacity:1;" d="M 19.96875 35.546875 C 19.574219 37.011719 20.144531 39.941406 20.824219 39.941406 C 21.394531 39.941406 22.601562 38.964844 22.601562 38.5 C 22.601562 37.167969 21.636719 35.371094 20.605469 34.835938 C 20.253906 34.636719 20.167969 34.726562 19.96875 35.546875 Z M 19.96875 35.546875 "/>
<path style=" stroke:none;fill-rule:evenodd;fill:rgb(100%,0%,0%);fill-opacity:1;" d="M 5.457031 38.972656 C 4.8125 38.617188 4.296875 38.179688 3.757812 37.53125 C 2.511719 36.03125 1.542969 34.242188 0.804688 32.074219 C 0.277344 30.535156 0.230469 30.171875 0.230469 27.875 C 0.230469 24.902344 0.421875 24.019531 1.597656 21.589844 C 2.363281 20.003906 2.945312 19.160156 4.003906 18.074219 C 7.398438 14.605469 12.078125 13.214844 16.804688 14.273438 C 19.628906 14.90625 22.089844 16.289062 24.019531 18.324219 C 25.824219 20.222656 27.027344 22.828125 27.578125 26.015625 C 27.792969 27.28125 27.8125 29.445312 27.613281 30.363281 C 27.296875 31.820312 26.199219 34.496094 25.375 35.816406 C 25.070312 36.304688 24.679688 36.742188 24.546875 36.742188 C 24.398438 36.742188 23.871094 36.105469 23.582031 35.578125 C 22.921875 34.382812 22.054688 31.972656 21.765625 30.546875 C 21.648438 29.984375 21.613281 29.578125 21.636719 29.109375 C 21.683594 28.085938 21.929688 27.671875 23.664062 25.714844 C 24.578125 24.683594 25.011719 24.023438 25.160156 23.441406 C 25.292969 22.925781 25.3125 22.265625 25.203125 22.089844 C 25.0625 21.867188 24.453125 22.316406 23.070312 23.671875 C 21.484375 25.230469 21.105469 25.457031 20.644531 25.132812 C 20.367188 24.9375 20.421875 24.558594 20.867188 23.609375 C 21.183594 22.929688 21.265625 22.671875 21.296875 22.246094 C 21.332031 21.746094 21.324219 21.714844 21.128906 21.585938 C 20.839844 21.394531 20.128906 21.46875 19.675781 21.738281 C 19.285156 21.972656 18.691406 22.667969 18.460938 23.171875 C 18.316406 23.480469 18.304688 23.636719 18.324219 24.683594 L 18.34375 25.847656 L 18.027344 26.136719 C 17.320312 26.78125 16.132812 27.085938 14.617188 27.011719 C 13.457031 26.953125 13.203125 26.71875 12.558594 25.113281 C 12.132812 24.050781 11.769531 23.398438 11.054688 22.429688 C 10.773438 22.050781 10.496094 21.644531 10.433594 21.523438 C 10.195312 21.0625 10.296875 20.578125 10.898438 19.316406 C 11.277344 18.519531 11.28125 18.046875 10.910156 17.636719 C 10.6875 17.390625 10.605469 17.351562 10.339844 17.359375 C 9.972656 17.367188 9.421875 17.683594 8.792969 18.242188 C 8.199219 18.765625 8.140625 18.933594 8.078125 20.203125 C 8.019531 21.476562 7.945312 21.683594 7.320312 22.398438 C 6.6875 23.125 6.609375 23.34375 6.519531 24.652344 C 6.453125 25.667969 6.34375 26.378906 5.898438 28.644531 C 5.792969 29.175781 5.734375 29.773438 5.730469 30.378906 C 5.726562 31.191406 5.753906 31.414062 5.96875 32.191406 C 6.308594 33.433594 6.394531 34.328125 6.347656 36.113281 C 6.3125 37.433594 6.28125 37.726562 6.105469 38.394531 C 5.992188 38.820312 5.894531 39.171875 5.882812 39.183594 C 5.875 39.191406 5.683594 39.097656 5.457031 38.972656 Z M 5.457031 38.972656 "/>
<path style=" stroke:none;fill-rule:evenodd;fill:rgb(100%,0%,0%);fill-opacity:1;" d="M 5.449219 38.921875 C 4.101562 38.121094 2.882812 36.574219 1.75 34.234375 C 1.023438 32.734375 0.453125 31.023438 0.335938 29.996094 C 0.199219 28.828125 0.289062 25.574219 0.484375 24.664062 C 0.726562 23.511719 1.707031 21.277344 2.535156 19.96875 C 4.300781 17.195312 7.601562 14.96875 11.058594 14.226562 C 12.035156 14.011719 14.253906 13.933594 15.339844 14.066406 C 19.625 14.601562 23.457031 16.972656 25.511719 20.355469 C 27.140625 23.042969 28.003906 26.917969 27.636719 29.878906 C 27.445312 31.417969 25.972656 35.011719 25.042969 36.199219 C 24.609375 36.753906 24.546875 36.761719 24.15625 36.3125 C 23.433594 35.480469 22.386719 32.960938 21.871094 30.804688 C 21.710938 30.136719 21.683594 29.859375 21.707031 29.1875 C 21.742188 28.167969 21.859375 27.933594 22.988281 26.589844 C 24.410156 24.894531 24.746094 24.453125 24.996094 23.945312 C 25.214844 23.496094 25.238281 23.375 25.238281 22.75 C 25.242188 22.101562 25.230469 22.050781 25.082031 22.027344 C 24.859375 21.996094 24.230469 22.5 22.945312 23.726562 C 21.714844 24.898438 21.320312 25.199219 21.007812 25.199219 C 20.441406 25.199219 20.414062 24.765625 20.902344 23.632812 C 21.183594 22.988281 21.261719 22.707031 21.292969 22.253906 C 21.328125 21.757812 21.316406 21.667969 21.195312 21.578125 C 21.027344 21.453125 20.398438 21.441406 19.984375 21.558594 C 19.605469 21.664062 18.925781 22.3125 18.566406 22.910156 L 18.300781 23.355469 L 18.292969 24.578125 C 18.28125 25.800781 18.28125 25.800781 18.074219 26.023438 C 17.78125 26.332031 17.078125 26.691406 16.503906 26.828125 C 15.933594 26.964844 14.328125 26.988281 13.898438 26.867188 C 13.46875 26.746094 13.128906 26.335938 12.769531 25.496094 C 12.210938 24.1875 11.953125 23.6875 11.523438 23.054688 C 11.292969 22.714844 10.941406 22.195312 10.738281 21.898438 C 10.257812 21.191406 10.253906 20.898438 10.714844 19.855469 C 10.890625 19.453125 11.089844 18.925781 11.152344 18.683594 C 11.261719 18.265625 11.257812 18.230469 11.09375 17.886719 C 10.980469 17.644531 10.839844 17.488281 10.667969 17.40625 C 10.429688 17.292969 10.378906 17.292969 10.007812 17.410156 C 9.460938 17.585938 8.484375 18.375 8.273438 18.8125 C 8.15625 19.058594 8.097656 19.402344 8.042969 20.203125 C 7.960938 21.375 7.851562 21.722656 7.417969 22.214844 C 6.695312 23.042969 6.628906 23.222656 6.480469 24.695312 C 6.363281 25.875 6.246094 26.636719 5.9375 28.222656 C 5.789062 28.976562 5.738281 29.488281 5.730469 30.300781 C 5.71875 31.304688 5.738281 31.457031 5.984375 32.421875 L 6.253906 33.464844 L 6.253906 35.585938 C 6.253906 37.5625 6.242188 37.75 6.078125 38.359375 C 5.980469 38.71875 5.875 39.039062 5.847656 39.070312 C 5.816406 39.101562 5.640625 39.035156 5.449219 38.921875 Z M 5.449219 38.921875 "/>
<path style=" stroke:none;fill-rule:evenodd;fill:rgb(100%,0%,0%);fill-opacity:1;" d="M 13.609375 41.726562 C 13.03125 41.597656 12.664062 41.347656 12.476562 40.960938 C 12.269531 40.523438 12.109375 39.507812 12.015625 38.011719 C 11.679688 32.597656 11.953125 30.191406 13.011719 29.222656 L 13.332031 28.933594 L 13.949219 28.976562 C 16.023438 29.128906 16.746094 29.9375 17.382812 32.839844 C 18.101562 36.101562 18.402344 39.320312 18.085938 40.378906 C 17.878906 41.074219 17.40625 41.457031 16.457031 41.707031 C 15.898438 41.855469 14.246094 41.863281 13.609375 41.726562 Z M 13.609375 41.726562 "/>
<path style=" stroke:none;fill-rule:evenodd;fill:rgb(100%,0%,0%);fill-opacity:1;" d="M 8.824219 40.808594 C 8.570312 40.535156 8.503906 40.257812 8.417969 39.175781 C 8.335938 38.148438 8.386719 35.761719 8.503906 35.125 C 8.582031 34.691406 8.917969 34.351562 9.089844 34.523438 C 9.394531 34.835938 9.695312 37.875 9.601562 39.671875 C 9.539062 40.839844 9.496094 40.980469 9.203125 40.980469 C 9.078125 40.980469 8.917969 40.910156 8.824219 40.808594 Z M 8.824219 40.808594 "/>
<path style=" stroke:none;fill-rule:evenodd;fill:rgb(100%,0%,0%);fill-opacity:1;" d="M 20.609375 39.765625 C 20.277344 39.386719 19.984375 38.324219 19.898438 37.199219 C 19.816406 36.148438 20.09375 34.8125 20.394531 34.8125 C 20.46875 34.8125 20.667969 34.917969 20.839844 35.042969 C 21.699219 35.671875 22.535156 37.296875 22.535156 38.34375 C 22.535156 38.640625 22.488281 38.726562 22.152344 39.082031 C 21.789062 39.472656 21.105469 39.902344 20.847656 39.902344 C 20.78125 39.902344 20.675781 39.839844 20.609375 39.765625 Z M 20.609375 39.765625 "/>
<path style=" stroke:none;fill-rule:evenodd;fill:rgb(100%,0%,0%);fill-opacity:1;" d="M 33.207031 27.179688 L 33.207031 20.703125 L 35.039062 20.703125 L 35.039062 24.402344 C 35.039062 26.441406 35.066406 28.105469 35.097656 28.105469 C 35.125 28.105469 36.011719 27.238281 37.0625 26.175781 L 38.972656 24.246094 L 40.203125 24.265625 L 41.433594 24.289062 L 40.046875 25.578125 C 39.285156 26.285156 38.476562 27.054688 38.25 27.289062 L 37.835938 27.710938 L 39.4375 30.164062 C 41.324219 33.046875 41.597656 33.480469 41.597656 33.582031 C 41.597656 33.628906 41.128906 33.65625 40.394531 33.65625 L 39.195312 33.65625 L 37.941406 31.574219 C 37.253906 30.425781 36.644531 29.449219 36.589844 29.40625 C 36.535156 29.359375 36.40625 29.34375 36.308594 29.367188 C 36.0625 29.429688 35.222656 30.347656 35.164062 30.621094 C 35.136719 30.742188 35.09375 31.476562 35.066406 32.25 L 35.015625 33.65625 L 33.207031 33.65625 Z M 33.207031 27.179688 "/>
<path style=" stroke:none;fill-rule:evenodd;fill:rgb(100%,0%,0%);fill-opacity:1;" d="M 50.9375 33.917969 C 50.855469 33.898438 50.707031 33.863281 50.609375 33.84375 C 50.511719 33.824219 50.28125 33.664062 50.09375 33.488281 C 49.683594 33.105469 49.527344 33.097656 48.835938 33.414062 C 48.054688 33.773438 47.234375 33.914062 46.144531 33.867188 C 45.550781 33.84375 45.089844 33.78125 44.859375 33.699219 C 44.335938 33.507812 43.855469 33.039062 43.5625 32.441406 C 43.335938 31.972656 43.3125 31.859375 43.3125 31.230469 C 43.3125 30.640625 43.34375 30.46875 43.511719 30.101562 C 43.878906 29.316406 44.507812 28.851562 45.589844 28.570312 C 45.890625 28.492188 46.761719 28.320312 47.53125 28.1875 C 49.570312 27.832031 49.605469 27.8125 49.605469 27.011719 C 49.605469 26.320312 49.417969 25.9375 48.972656 25.699219 C 48.695312 25.546875 48.535156 25.523438 47.808594 25.523438 C 47.011719 25.523438 46.945312 25.535156 46.460938 25.777344 C 45.933594 26.039062 45.675781 26.308594 45.628906 26.640625 C 45.585938 26.921875 45.304688 27.023438 44.5625 27.023438 C 43.703125 27.027344 43.660156 26.980469 43.882812 26.28125 C 44.265625 25.085938 45.097656 24.40625 46.515625 24.132812 C 48.472656 23.753906 50.550781 24.300781 51.160156 25.351562 C 51.546875 26.015625 51.59375 26.398438 51.65625 29.339844 C 51.695312 31.214844 51.742188 32.132812 51.804688 32.25 C 51.871094 32.375 51.964844 32.421875 52.152344 32.421875 C 52.296875 32.421875 52.453125 32.476562 52.511719 32.550781 C 52.640625 32.710938 52.652344 33.6875 52.527344 33.816406 C 52.433594 33.910156 51.214844 33.988281 50.9375 33.917969 Z M 48.441406 32.3125 C 49.058594 32.027344 49.417969 31.628906 49.503906 31.136719 C 49.574219 30.707031 49.589844 29.144531 49.519531 29.074219 C 49.445312 29 47.589844 29.386719 46.773438 29.644531 C 46.027344 29.882812 45.707031 30.070312 45.546875 30.367188 C 45.300781 30.828125 45.347656 31.625 45.648438 32.050781 C 45.933594 32.460938 46.328125 32.585938 47.203125 32.558594 C 47.84375 32.535156 48.039062 32.496094 48.441406 32.3125 Z M 48.441406 32.3125 "/>
<path style=" stroke:none;fill-rule:evenodd;fill:rgb(100%,0%,0%);fill-opacity:1;" d="M 56.945312 33.894531 C 56.164062 33.699219 55.425781 33.308594 54.976562 32.851562 C 54.515625 32.382812 54.316406 31.984375 54.269531 31.441406 C 54.238281 31.0625 54.25 31.035156 54.441406 30.960938 C 54.726562 30.851562 55.703125 30.863281 55.921875 30.976562 C 56.03125 31.035156 56.160156 31.226562 56.242188 31.449219 C 56.417969 31.917969 56.566406 32.082031 57.007812 32.3125 C 57.785156 32.710938 58.890625 32.71875 59.664062 32.328125 C 60.136719 32.089844 60.355469 31.742188 60.355469 31.21875 C 60.355469 30.457031 59.945312 30.171875 58.136719 29.683594 C 55.746094 29.039062 54.996094 28.660156 54.621094 27.921875 C 54.273438 27.230469 54.390625 25.921875 54.863281 25.269531 C 55.113281 24.917969 56.027344 24.378906 56.640625 24.21875 C 57.898438 23.890625 59.644531 24.035156 60.652344 24.554688 C 61.40625 24.941406 62.035156 25.84375 62.035156 26.535156 C 62.035156 26.957031 61.914062 27.027344 61.167969 27.027344 C 60.414062 27.027344 60.257812 26.957031 60.054688 26.535156 C 59.839844 26.082031 59.378906 25.667969 58.96875 25.554688 C 58.777344 25.503906 58.355469 25.480469 57.953125 25.5 C 56.851562 25.558594 56.390625 25.894531 56.390625 26.644531 C 56.390625 27.242188 56.941406 27.558594 58.945312 28.105469 C 61.414062 28.777344 62.449219 29.632812 62.433594 30.996094 C 62.417969 32.769531 60.65625 34.050781 58.257812 34.035156 C 57.804688 34.03125 57.273438 33.976562 56.945312 33.894531 Z M 56.945312 33.894531 "/>
<path style=" stroke:none;fill-rule:evenodd;fill:rgb(100%,0%,0%);fill-opacity:1;" d="M 65.007812 30.726562 L 65.007812 24.25 L 65.828125 24.25 C 66.277344 24.25 66.695312 24.285156 66.757812 24.324219 C 66.828125 24.367188 66.878906 24.570312 66.898438 24.898438 L 66.929688 25.402344 L 67.4375 24.964844 C 67.714844 24.726562 68.167969 24.425781 68.4375 24.292969 C 68.902344 24.070312 68.988281 24.058594 69.8125 24.058594 C 71.253906 24.0625 72.0625 24.351562 72.828125 25.132812 C 73.726562 26.054688 74.234375 27.484375 74.234375 29.09375 C 74.234375 30.734375 73.835938 31.839844 72.898438 32.789062 C 71.972656 33.722656 70.914062 34.070312 69.523438 33.894531 C 68.554688 33.769531 68.207031 33.601562 67.300781 32.820312 L 66.914062 32.484375 L 66.914062 37.203125 L 65.007812 37.203125 Z M 70.660156 32.1875 C 71.527344 31.738281 72.144531 30.570312 72.226562 29.222656 C 72.316406 27.734375 71.710938 26.417969 70.710938 25.914062 C 70.382812 25.75 70.210938 25.714844 69.6875 25.714844 C 68.777344 25.714844 68.328125 25.832031 67.964844 26.160156 C 67.152344 26.902344 66.710938 28.730469 67.019531 30.058594 C 67.402344 31.699219 68.40625 32.503906 69.921875 32.375 C 70.167969 32.351562 70.5 32.269531 70.660156 32.1875 Z M 70.660156 32.1875 "/>
<path style=" stroke:none;fill-rule:evenodd;fill:rgb(100%,0%,0%);fill-opacity:1;" d="M 76.832031 30.4375 C 76.835938 27.046875 76.914062 24.445312 77.011719 24.347656 C 77.042969 24.316406 77.496094 24.277344 78.015625 24.261719 L 78.960938 24.234375 L 78.960938 33.65625 L 76.828125 33.65625 Z M 76.832031 30.4375 "/>
<path style=" stroke:none;fill-rule:evenodd;fill:rgb(100%,0%,0%);fill-opacity:1;" d="M 78.238281 22.578125 C 76.96875 22.496094 76.902344 22.441406 76.902344 21.429688 L 76.902344 20.695312 L 77.167969 20.582031 C 77.339844 20.511719 77.703125 20.472656 78.195312 20.472656 L 78.960938 20.472656 L 78.960938 21.550781 C 78.960938 22.625 78.960938 22.628906 78.789062 22.617188 C 78.695312 22.609375 78.445312 22.59375 78.238281 22.578125 Z M 78.238281 22.578125 "/>
</g>
</svg>
