<?xml version="1.0" encoding="UTF-8"?>
<svg xmlns="http://www.w3.org/2000/svg" xmlns:xlink="http://www.w3.org/1999/xlink" width="80px" height="px" viewBox="0 0 80 48" version="1.1">
<g id="surface1">
<path style=" stroke:none;fill-rule:nonzero;fill:rgb(97.647059%,70.980392%,4.313725%);fill-opacity:1;" d="M 80 24 C 80 37.167969 69.292969 48 56 48 C 42.832031 48 32 37.167969 32 24 C 32 10.832031 42.707031 0 55.875 0 C 69.292969 0 80 10.832031 80 24 Z M 80 24 "/>
<path style=" stroke:none;fill-rule:nonzero;fill:rgb(78.431373%,9.803922%,10.980392%);fill-opacity:1;" d="M 47.875 24.125 C 47.875 22.398438 47.628906 20.675781 47.382812 19.078125 L 32.617188 19.078125 C 32.738281 18.214844 32.984375 17.476562 33.230469 16.492188 L 46.398438 16.492188 C 46.152344 15.628906 45.785156 14.769531 45.414062 13.90625 L 34.214844 13.90625 C 34.585938 13.046875 35.078125 12.308594 35.570312 11.324219 L 44.0625 11.324219 C 43.570312 10.460938 42.953125 9.601562 42.214844 8.738281 L 37.539062 8.738281 C 38.277344 7.875 39.015625 7.136719 40 6.277344 C 35.816406 2.339844 30.152344 0 23.875 0 C 10.832031 0.371094 0 10.832031 0 24 C 0 37.167969 10.707031 48 24 48 C 30.277344 48 35.816406 45.539062 40.125 41.722656 C 40.984375 40.984375 41.722656 40.125 42.585938 39.136719 L 37.660156 39.136719 C 37.046875 38.398438 36.429688 37.539062 35.9375 36.675781 L 44.308594 36.675781 C 44.800781 35.9375 45.292969 35.078125 45.660156 34.09375 L 34.460938 34.09375 C 34.09375 33.355469 33.722656 32.492188 33.476562 31.507812 L 46.644531 31.507812 C 47.382812 29.292969 47.875 26.832031 47.875 24.125 Z M 47.875 24.125 "/>
<path style=" stroke:none;fill-rule:nonzero;fill:rgb(100%,100%,100%);fill-opacity:1;" d="M 32.492188 30.152344 L 32.863281 27.9375 C 32.738281 27.9375 32.492188 28.0625 32.246094 28.0625 C 31.382812 28.0625 31.261719 27.570312 31.382812 27.324219 L 32.125 22.890625 L 33.476562 22.890625 L 33.847656 20.429688 L 32.617188 20.429688 L 32.863281 18.953125 L 30.277344 18.953125 C 30.277344 18.953125 28.800781 27.324219 28.800781 28.308594 C 28.800781 29.785156 29.660156 30.523438 30.890625 30.523438 C 31.628906 30.523438 32.246094 30.277344 32.492188 30.152344 Z M 32.492188 30.152344 "/>
<path style=" stroke:none;fill-rule:nonzero;fill:rgb(100%,100%,100%);fill-opacity:1;" d="M 33.355469 26.09375 C 33.355469 29.660156 35.816406 30.523438 37.785156 30.523438 C 39.628906 30.523438 40.492188 30.152344 40.492188 30.152344 L 40.984375 27.691406 C 40.984375 27.691406 39.628906 28.308594 38.277344 28.308594 C 35.445312 28.308594 35.9375 26.214844 35.9375 26.214844 L 41.109375 26.214844 C 41.109375 26.214844 41.476562 24.617188 41.476562 23.875 C 41.476562 22.277344 40.617188 20.183594 37.785156 20.183594 C 35.324219 20.0625 33.355469 22.890625 33.355469 26.09375 Z M 37.785156 22.398438 C 39.136719 22.398438 38.890625 24 38.890625 24.125 L 36.0625 24.125 C 36.183594 24 36.429688 22.398438 37.785156 22.398438 Z M 37.785156 22.398438 "/>
<path style=" stroke:none;fill-rule:nonzero;fill:rgb(100%,100%,100%);fill-opacity:1;" d="M 53.90625 30.152344 L 54.398438 27.324219 C 54.398438 27.324219 53.167969 27.9375 52.183594 27.9375 C 50.460938 27.9375 49.601562 26.585938 49.601562 24.984375 C 49.601562 21.90625 51.078125 20.308594 52.921875 20.308594 C 54.152344 20.308594 55.261719 21.046875 55.261719 21.046875 L 55.628906 18.339844 C 55.628906 18.339844 54.152344 17.722656 52.675781 17.722656 C 49.722656 17.722656 46.890625 20.308594 46.890625 25.109375 C 46.890625 28.308594 48.371094 30.398438 51.445312 30.398438 C 52.554688 30.523438 53.90625 30.152344 53.90625 30.152344 Z M 53.90625 30.152344 "/>
<path style=" stroke:none;fill-rule:nonzero;fill:rgb(100%,100%,100%);fill-opacity:1;" d="M 18.585938 20.0625 C 16.863281 20.0625 15.507812 20.554688 15.507812 20.554688 L 15.136719 22.769531 C 15.136719 22.769531 16.246094 22.277344 17.96875 22.277344 C 18.832031 22.277344 19.570312 22.398438 19.570312 23.136719 C 19.570312 23.628906 19.445312 23.753906 19.445312 23.753906 L 18.339844 23.753906 C 16.125 23.753906 13.785156 24.617188 13.785156 27.570312 C 13.785156 29.90625 15.261719 30.398438 16.246094 30.398438 C 17.96875 30.398438 18.832031 29.292969 18.953125 29.292969 L 18.832031 30.277344 L 20.921875 30.277344 L 21.90625 23.261719 C 21.90625 20.183594 19.445312 20.0625 18.585938 20.0625 Z M 19.078125 25.722656 C 19.078125 26.09375 18.832031 28.183594 17.355469 28.183594 C 16.617188 28.183594 16.371094 27.570312 16.371094 27.199219 C 16.371094 26.585938 16.738281 25.722656 18.707031 25.722656 C 18.953125 25.722656 19.078125 25.722656 19.078125 25.722656 Z M 19.078125 25.722656 "/>
<path style=" stroke:none;fill-rule:nonzero;fill:rgb(100%,100%,100%);fill-opacity:1;" d="M 24.371094 30.398438 C 24.984375 30.398438 28.183594 30.523438 28.183594 27.078125 C 28.183594 23.875 25.109375 24.492188 25.109375 23.261719 C 25.109375 22.644531 25.601562 22.398438 26.460938 22.398438 C 26.832031 22.398438 28.183594 22.523438 28.183594 22.523438 L 28.554688 20.183594 C 28.554688 20.183594 27.691406 19.9375 26.09375 19.9375 C 24.246094 19.9375 22.277344 20.675781 22.277344 23.261719 C 22.277344 26.214844 25.476562 25.96875 25.476562 27.078125 C 25.476562 27.816406 24.617188 27.9375 24 27.9375 C 22.890625 27.9375 21.660156 27.570312 21.660156 27.570312 L 21.292969 29.90625 C 21.539062 30.152344 22.277344 30.398438 24.371094 30.398438 Z M 24.371094 30.398438 "/>
<path style=" stroke:none;fill-rule:nonzero;fill:rgb(100%,100%,100%);fill-opacity:1;" d="M 75.078125 18.09375 L 74.585938 21.539062 C 74.585938 21.539062 73.601562 20.308594 72.125 20.308594 C 69.785156 20.308594 67.816406 23.136719 67.816406 26.460938 C 67.816406 28.554688 68.800781 30.644531 71.015625 30.644531 C 72.492188 30.644531 73.476562 29.660156 73.476562 29.660156 L 73.355469 30.523438 L 75.9375 30.523438 L 77.785156 18.339844 Z M 73.847656 24.738281 C 73.847656 26.09375 73.230469 27.9375 71.753906 27.9375 C 70.890625 27.9375 70.398438 27.199219 70.398438 25.847656 C 70.398438 23.753906 71.261719 22.523438 72.492188 22.523438 C 73.355469 22.644531 73.847656 23.261719 73.847656 24.738281 Z M 73.847656 24.738281 "/>
<path style=" stroke:none;fill-rule:nonzero;fill:rgb(100%,100%,100%);fill-opacity:1;" d="M 4.675781 30.277344 L 6.152344 21.167969 L 6.398438 30.277344 L 8.125 30.277344 L 11.445312 21.167969 L 10.09375 30.277344 L 12.800781 30.277344 L 14.890625 18.09375 L 10.707031 18.09375 L 8.125 25.601562 L 8 18.09375 L 4.308594 18.09375 L 2.214844 30.277344 Z M 4.675781 30.277344 "/>
<path style=" stroke:none;fill-rule:nonzero;fill:rgb(100%,100%,100%);fill-opacity:1;" d="M 44.0625 30.277344 C 44.800781 26.09375 44.921875 22.644531 46.769531 23.261719 C 47.015625 21.660156 47.382812 20.921875 47.628906 20.308594 L 47.136719 20.308594 C 46.03125 20.308594 45.046875 21.785156 45.046875 21.785156 L 45.292969 20.429688 L 42.832031 20.429688 L 41.230469 30.277344 Z M 44.0625 30.277344 "/>
<path style=" stroke:none;fill-rule:nonzero;fill:rgb(100%,100%,100%);fill-opacity:1;" d="M 59.816406 20.0625 C 58.09375 20.0625 56.738281 20.554688 56.738281 20.554688 L 56.371094 22.769531 C 56.371094 22.769531 57.476562 22.277344 59.199219 22.277344 C 60.0625 22.277344 60.800781 22.398438 60.800781 23.136719 C 60.800781 23.628906 60.675781 23.753906 60.675781 23.753906 L 59.570312 23.753906 C 57.355469 23.753906 55.015625 24.617188 55.015625 27.570312 C 55.015625 29.90625 56.492188 30.398438 57.476562 30.398438 C 59.199219 30.398438 60.0625 29.292969 60.183594 29.292969 L 60.0625 30.277344 L 62.398438 30.277344 L 63.382812 23.261719 C 63.382812 20.183594 60.675781 20.0625 59.816406 20.0625 Z M 60.429688 25.722656 C 60.429688 26.09375 60.183594 28.183594 58.707031 28.183594 C 57.96875 28.183594 57.722656 27.570312 57.722656 27.199219 C 57.722656 26.585938 58.09375 25.722656 60.0625 25.722656 C 60.308594 25.722656 60.308594 25.722656 60.429688 25.722656 Z M 60.429688 25.722656 "/>
<path style=" stroke:none;fill-rule:nonzero;fill:rgb(100%,100%,100%);fill-opacity:1;" d="M 65.355469 30.277344 C 66.09375 26.09375 66.214844 22.644531 68.0625 23.261719 C 68.308594 21.660156 68.675781 20.921875 68.921875 20.308594 L 68.429688 20.308594 C 67.324219 20.308594 66.339844 21.785156 66.339844 21.785156 L 66.585938 20.429688 L 64.125 20.429688 L 62.523438 30.277344 Z M 65.355469 30.277344 "/>
</g>
</svg>
