<?xml version="1.0" encoding="UTF-8"?>
<svg xmlns="http://www.w3.org/2000/svg" xmlns:xlink="http://www.w3.org/1999/xlink" width="80px" height="px" viewBox="0 0 78 24" version="1.1">
<g id="surface1">
<path style=" stroke:none;fill-rule:nonzero;fill:rgb(20%,38.431373%,67.058824%);fill-opacity:1;" d="M 72.121094 0.34375 L 67.261719 0.34375 C 65.792969 0.34375 64.660156 0.800781 63.984375 2.285156 L 54.714844 23.65625 L 61.269531 23.65625 C 61.269531 23.65625 62.398438 20.800781 62.625 20.113281 C 63.304688 20.113281 69.746094 20.113281 70.652344 20.113281 C 70.878906 20.914062 71.445312 23.542969 71.445312 23.542969 L 77.320312 23.542969 Z M 64.433594 15.3125 C 65 13.941406 66.921875 8.800781 66.921875 8.800781 C 66.921875 8.914062 67.488281 7.429688 67.714844 6.628906 L 68.164062 8.6875 C 68.164062 8.6875 69.410156 14.285156 69.636719 15.429688 L 64.433594 15.429688 Z M 64.433594 15.3125 "/>
<path style=" stroke:none;fill-rule:nonzero;fill:rgb(20%,38.431373%,67.058824%);fill-opacity:1;" d="M 55.164062 16 C 55.164062 20.800781 50.871094 24 44.199219 24 C 41.375 24 38.660156 23.429688 37.191406 22.742188 L 38.09375 17.484375 L 38.886719 17.828125 C 40.921875 18.742188 42.277344 19.085938 44.765625 19.085938 C 46.574219 19.085938 48.496094 18.398438 48.496094 16.800781 C 48.496094 15.769531 47.703125 15.085938 45.21875 13.941406 C 42.84375 12.800781 39.679688 10.972656 39.679688 7.65625 C 39.679688 3.085938 44.085938 0 50.304688 0 C 52.679688 0 54.714844 0.457031 55.957031 1.027344 L 55.050781 6.058594 L 54.601562 5.601562 C 53.46875 5.144531 52 4.6875 49.851562 4.6875 C 47.476562 4.800781 46.347656 5.828125 46.347656 6.742188 C 46.347656 7.769531 47.703125 8.570312 49.851562 9.601562 C 53.46875 11.3125 55.164062 13.257812 55.164062 16 Z M 55.164062 16 "/>
<path style=" stroke:none;fill-rule:nonzero;fill:rgb(97.647059%,70.980392%,4.313725%);fill-opacity:1;" d="M 0 0.570312 L 0.113281 0.113281 L 9.835938 0.113281 C 11.191406 0.113281 12.207031 0.570312 12.546875 2.058594 L 14.695312 12.34375 C 12.546875 6.855469 7.574219 2.398438 0 0.570312 Z M 0 0.570312 "/>
<path style=" stroke:none;fill-rule:nonzero;fill:rgb(20%,38.431373%,67.058824%);fill-opacity:1;" d="M 28.375 0.34375 L 18.539062 23.542969 L 11.871094 23.542969 L 6.21875 4.113281 C 10.285156 6.742188 13.679688 10.855469 14.921875 13.714844 L 15.601562 16.113281 L 21.703125 0.230469 L 28.375 0.230469 Z M 28.375 0.34375 "/>
<path style=" stroke:none;fill-rule:nonzero;fill:rgb(20%,38.431373%,67.058824%);fill-opacity:1;" d="M 30.972656 0.230469 L 37.191406 0.230469 L 33.234375 23.542969 L 27.015625 23.542969 Z M 30.972656 0.230469 "/>
</g>
</svg>
